<?xml version="1.0" encoding="utf-8"?>
<!-- Generator: Adobe Illustrator 27.0.0, SVG Export Plug-In . SVG Version: 6.00 Build 0)  -->
<svg version="1.1" id="Capa_1" xmlns="http://www.w3.org/2000/svg" xmlns:xlink="http://www.w3.org/1999/xlink" x="0px" y="0px"
	 viewBox="0 0 1080 1080" style="enable-background:new 0 0 1080 1080;" xml:space="preserve">
<style type="text/css">
	.st0{fill:#E1811C;}
</style>
<path class="st0" d="M942.34,350.81H774.78c-41.58,0-78.43-26.77-91.28-66.32l-51.78-159.36c-28.73-88.42-153.82-88.42-182.55,0
	l-51.78,159.36c-12.85,39.54-49.7,66.32-91.28,66.32H138.55c-92.97,0-131.63,118.97-56.41,173.62l135.56,98.49
	c33.64,24.44,47.71,67.76,34.86,107.3l-51.78,159.36c-28.73,88.42,72.47,161.95,147.69,107.3l135.56-98.49
	c33.64-24.44,79.19-24.44,112.82,0l135.56,98.49c75.22,54.65,176.42-18.88,147.69-107.3l-51.78-159.36
	c-12.85-39.54,1.23-82.86,34.86-107.3l135.56-98.49C1073.96,469.78,1035.31,350.81,942.34,350.81z M889.07,527.49l-103.12,74.92
	c-25.59,18.59-36.29,51.54-26.52,81.62l39.39,121.22c21.85,67.26-55.13,123.19-112.34,81.62l-103.12-74.92
	c-25.59-18.59-60.24-18.59-85.82,0l-103.12,74.92c-57.22,41.57-134.2-14.36-112.34-81.62l39.39-121.22
	c9.77-30.08-0.93-63.03-26.52-81.62l-103.12-74.92c-57.22-41.57-27.81-132.07,42.91-132.07h127.46c31.63,0,59.66-20.37,69.43-50.45
	l39.39-121.22c21.85-67.26,117.01-67.26,138.87,0l39.39,121.22c9.77,30.08,37.8,50.45,69.43,50.45h127.46
	C916.88,395.42,946.28,485.92,889.07,527.49z"/>
</svg>
